<?xml version="1.0" encoding="utf-8"?>
<!-- Generator: Adobe Illustrator 22.0.0, SVG Export Plug-In . SVG Version: 6.00 Build 0)  -->
<svg version="1.1" id="Ebene_1" xmlns="http://www.w3.org/2000/svg" xmlns:xlink="http://www.w3.org/1999/xlink" x="0px" y="0px"
	 viewBox="0 0 13 13" style="enable-background:new 0 0 13 13;" xml:space="preserve">
<style type="text/css">
	.st0{fill:#91979C;}
</style>
<circle class="st0" cx="5.9" cy="4.5" r="0.2"/>
<g>
	<path class="st0" d="M8.3,5.4c0-0.7-0.5-1.2-1.2-1.2C6.5,4.2,6.2,4.8,6,5.3L5.8,5.8c-0.4,1-0.9,1.8-2.1,1.8c-1.3,0-2.3-1-2.3-2.3
		c0-1.2,0.7-2.1,1.9-2.4l0.2,0.8C2.7,3.9,2.1,4.5,2.1,5.3c0,0.8,0.6,1.5,1.5,1.5c0.9,0,1.2-0.7,1.5-1.4L5.2,5
		c0.4-0.9,0.8-1.6,1.9-1.7c1.2,0,1.9,1,1.9,2.1H8.3z"/>
</g>
</svg>
